<mxfile host="app.diagrams.net" modified="2024-01-02T10:41:05.901Z" agent="Mozilla/5.0 (Windows NT 10.0; Win64; x64) AppleWebKit/537.36 (KHTML, like Gecko) Chrome/120.0.0.0 Safari/537.36 Edg/120.0.0.0" etag="S5gc9u5Cl50fxg2sQqG1" version="22.1.16" type="github">
  <diagram name="Trang-1" id="-HHkhr7CmErtUl-bY4qL">
    <mxGraphModel dx="797" dy="454" grid="1" gridSize="10" guides="1" tooltips="1" connect="1" arrows="1" fold="1" page="1" pageScale="1" pageWidth="827" pageHeight="1169" math="0" shadow="0">
      <root>
        <mxCell id="0" />
        <mxCell id="1" parent="0" />
        <mxCell id="nzLeIhQh2oLokmoCojXW-3" value="" style="edgeStyle=orthogonalEdgeStyle;rounded=0;orthogonalLoop=1;jettySize=auto;html=1;" edge="1" parent="1" source="nzLeIhQh2oLokmoCojXW-1" target="nzLeIhQh2oLokmoCojXW-2">
          <mxGeometry relative="1" as="geometry" />
        </mxCell>
        <mxCell id="nzLeIhQh2oLokmoCojXW-1" value="Begin" style="ellipse;whiteSpace=wrap;html=1;" vertex="1" parent="1">
          <mxGeometry x="340" y="20" width="120" height="80" as="geometry" />
        </mxCell>
        <mxCell id="nzLeIhQh2oLokmoCojXW-5" value="" style="edgeStyle=orthogonalEdgeStyle;rounded=0;orthogonalLoop=1;jettySize=auto;html=1;" edge="1" parent="1" source="nzLeIhQh2oLokmoCojXW-2" target="nzLeIhQh2oLokmoCojXW-4">
          <mxGeometry relative="1" as="geometry" />
        </mxCell>
        <mxCell id="nzLeIhQh2oLokmoCojXW-2" value="Nhập a, b, c" style="shape=parallelogram;perimeter=parallelogramPerimeter;whiteSpace=wrap;html=1;fixedSize=1;" vertex="1" parent="1">
          <mxGeometry x="340" y="190" width="120" height="60" as="geometry" />
        </mxCell>
        <mxCell id="nzLeIhQh2oLokmoCojXW-8" value="" style="edgeStyle=orthogonalEdgeStyle;rounded=0;orthogonalLoop=1;jettySize=auto;html=1;" edge="1" parent="1" source="nzLeIhQh2oLokmoCojXW-4" target="nzLeIhQh2oLokmoCojXW-7">
          <mxGeometry relative="1" as="geometry" />
        </mxCell>
        <mxCell id="nzLeIhQh2oLokmoCojXW-10" value="" style="edgeStyle=orthogonalEdgeStyle;rounded=0;orthogonalLoop=1;jettySize=auto;html=1;" edge="1" parent="1" source="nzLeIhQh2oLokmoCojXW-4" target="nzLeIhQh2oLokmoCojXW-9">
          <mxGeometry relative="1" as="geometry" />
        </mxCell>
        <mxCell id="nzLeIhQh2oLokmoCojXW-4" value="a = 0" style="rhombus;whiteSpace=wrap;html=1;" vertex="1" parent="1">
          <mxGeometry x="360" y="320" width="80" height="80" as="geometry" />
        </mxCell>
        <mxCell id="nzLeIhQh2oLokmoCojXW-7" value="Nghiệm x = -c/b" style="whiteSpace=wrap;html=1;" vertex="1" parent="1">
          <mxGeometry x="500" y="330" width="120" height="60" as="geometry" />
        </mxCell>
        <mxCell id="nzLeIhQh2oLokmoCojXW-12" value="" style="edgeStyle=orthogonalEdgeStyle;rounded=0;orthogonalLoop=1;jettySize=auto;html=1;" edge="1" parent="1" source="nzLeIhQh2oLokmoCojXW-9" target="nzLeIhQh2oLokmoCojXW-11">
          <mxGeometry relative="1" as="geometry" />
        </mxCell>
        <mxCell id="nzLeIhQh2oLokmoCojXW-9" value="delta = b&lt;sup&gt;2&lt;/sup&gt;&amp;nbsp; - 4ac" style="whiteSpace=wrap;html=1;" vertex="1" parent="1">
          <mxGeometry x="340" y="490" width="120" height="60" as="geometry" />
        </mxCell>
        <mxCell id="nzLeIhQh2oLokmoCojXW-14" value="" style="edgeStyle=orthogonalEdgeStyle;rounded=0;orthogonalLoop=1;jettySize=auto;html=1;" edge="1" parent="1" source="nzLeIhQh2oLokmoCojXW-11" target="nzLeIhQh2oLokmoCojXW-13">
          <mxGeometry relative="1" as="geometry" />
        </mxCell>
        <mxCell id="nzLeIhQh2oLokmoCojXW-16" value="" style="edgeStyle=orthogonalEdgeStyle;rounded=0;orthogonalLoop=1;jettySize=auto;html=1;" edge="1" parent="1" source="nzLeIhQh2oLokmoCojXW-11" target="nzLeIhQh2oLokmoCojXW-15">
          <mxGeometry relative="1" as="geometry" />
        </mxCell>
        <mxCell id="nzLeIhQh2oLokmoCojXW-11" value="delta &amp;lt; 0" style="rhombus;whiteSpace=wrap;html=1;" vertex="1" parent="1">
          <mxGeometry x="360" y="620" width="80" height="80" as="geometry" />
        </mxCell>
        <mxCell id="nzLeIhQh2oLokmoCojXW-38" style="edgeStyle=orthogonalEdgeStyle;rounded=0;orthogonalLoop=1;jettySize=auto;html=1;exitX=1;exitY=0.5;exitDx=0;exitDy=0;endArrow=none;endFill=0;" edge="1" parent="1" source="nzLeIhQh2oLokmoCojXW-13">
          <mxGeometry relative="1" as="geometry">
            <mxPoint x="680" y="660" as="targetPoint" />
          </mxGeometry>
        </mxCell>
        <mxCell id="nzLeIhQh2oLokmoCojXW-13" value="PT vô nghiệm" style="rounded=1;whiteSpace=wrap;html=1;gradientColor=none;rotation=0;perimeter=rectanglePerimeter;" vertex="1" parent="1">
          <mxGeometry x="500" y="630" width="120" height="60" as="geometry" />
        </mxCell>
        <mxCell id="nzLeIhQh2oLokmoCojXW-18" value="" style="edgeStyle=orthogonalEdgeStyle;rounded=0;orthogonalLoop=1;jettySize=auto;html=1;" edge="1" parent="1" source="nzLeIhQh2oLokmoCojXW-15" target="nzLeIhQh2oLokmoCojXW-17">
          <mxGeometry relative="1" as="geometry" />
        </mxCell>
        <mxCell id="nzLeIhQh2oLokmoCojXW-25" value="" style="edgeStyle=orthogonalEdgeStyle;rounded=0;orthogonalLoop=1;jettySize=auto;html=1;" edge="1" parent="1" source="nzLeIhQh2oLokmoCojXW-15" target="nzLeIhQh2oLokmoCojXW-24">
          <mxGeometry relative="1" as="geometry" />
        </mxCell>
        <mxCell id="nzLeIhQh2oLokmoCojXW-15" value="delta = 0" style="rhombus;whiteSpace=wrap;html=1;" vertex="1" parent="1">
          <mxGeometry x="360" y="780" width="80" height="80" as="geometry" />
        </mxCell>
        <mxCell id="nzLeIhQh2oLokmoCojXW-39" style="edgeStyle=orthogonalEdgeStyle;rounded=0;orthogonalLoop=1;jettySize=auto;html=1;exitX=1;exitY=0.5;exitDx=0;exitDy=0;endArrow=none;endFill=0;" edge="1" parent="1" source="nzLeIhQh2oLokmoCojXW-17">
          <mxGeometry relative="1" as="geometry">
            <mxPoint x="680" y="820" as="targetPoint" />
          </mxGeometry>
        </mxCell>
        <mxCell id="nzLeIhQh2oLokmoCojXW-17" value="x = -b/2a" style="whiteSpace=wrap;html=1;" vertex="1" parent="1">
          <mxGeometry x="500" y="790" width="120" height="60" as="geometry" />
        </mxCell>
        <mxCell id="nzLeIhQh2oLokmoCojXW-32" value="" style="edgeStyle=orthogonalEdgeStyle;rounded=0;orthogonalLoop=1;jettySize=auto;html=1;" edge="1" parent="1" source="nzLeIhQh2oLokmoCojXW-24" target="nzLeIhQh2oLokmoCojXW-31">
          <mxGeometry relative="1" as="geometry" />
        </mxCell>
        <mxCell id="nzLeIhQh2oLokmoCojXW-24" value="x1=(-b+ sqrt(delta))/2a&amp;nbsp;&lt;br&gt;x2=(-b- sqrt(delta))/2a&amp;nbsp;" style="whiteSpace=wrap;html=1;" vertex="1" parent="1">
          <mxGeometry x="320" y="950" width="160" height="60" as="geometry" />
        </mxCell>
        <mxCell id="nzLeIhQh2oLokmoCojXW-41" value="" style="edgeStyle=orthogonalEdgeStyle;rounded=0;orthogonalLoop=1;jettySize=auto;html=1;" edge="1" parent="1" source="nzLeIhQh2oLokmoCojXW-31" target="nzLeIhQh2oLokmoCojXW-40">
          <mxGeometry relative="1" as="geometry" />
        </mxCell>
        <mxCell id="nzLeIhQh2oLokmoCojXW-31" value="In kết quả ra màn hình" style="whiteSpace=wrap;html=1;" vertex="1" parent="1">
          <mxGeometry x="340" y="1050" width="120" height="60" as="geometry" />
        </mxCell>
        <mxCell id="nzLeIhQh2oLokmoCojXW-33" style="edgeStyle=orthogonalEdgeStyle;rounded=0;orthogonalLoop=1;jettySize=auto;html=1;" edge="1" parent="1" source="nzLeIhQh2oLokmoCojXW-7" target="nzLeIhQh2oLokmoCojXW-31">
          <mxGeometry relative="1" as="geometry">
            <Array as="points">
              <mxPoint x="680" y="360" />
            </Array>
          </mxGeometry>
        </mxCell>
        <mxCell id="nzLeIhQh2oLokmoCojXW-36" value="" style="endArrow=none;html=1;rounded=0;" edge="1" parent="1">
          <mxGeometry width="50" height="50" relative="1" as="geometry">
            <mxPoint x="380" y="750" as="sourcePoint" />
            <mxPoint x="430" y="700" as="targetPoint" />
          </mxGeometry>
        </mxCell>
        <mxCell id="nzLeIhQh2oLokmoCojXW-40" value="End" style="ellipse;whiteSpace=wrap;html=1;" vertex="1" parent="1">
          <mxGeometry x="360" y="1180" width="80" height="60" as="geometry" />
        </mxCell>
      </root>
    </mxGraphModel>
  </diagram>
</mxfile>
